<svg width="40" height="40" viewBox="0 0 40 40" fill="none" xmlns="http://www.w3.org/2000/svg">
    <!-- Ícono: Subtítulos -->
    <symbol id="icon-subtitles">
        <path fill-rule="evenodd" clip-rule="evenodd" d="M2 10C2 7.23858 4.23858 5 7 5H33C35.7614 5 38 7.23858 38 10V30C38 32.7614 35.7614 35 33 35H7C4.23858 35 2 32.7614 2 30V10ZM7 7C5.34315 7 4 8.34315 4 10V30C4 31.6569 5.34315 33 7 33H33C34.6569 33 36 31.6569 36 30V10C36 8.34315 34.6569 7 33 7H7ZM8 28C8 27.4477 8.44772 27 9 27H31C31.5523 27 32 27.4477 32 28C32 28.5523 31.5523 29 31 29H9C8.44772 29 8 28.5523 8 28ZM9 21C8.44772 21 8 21.4477 8 22C8 22.5523 8.44772 23 9 23H18C18.5523 23 19 22.5523 19 22C19 21.4477 18.5523 21 18 21H9Z" fill="currentColor"/>
    </symbol>

    <!-- Ícono: Web -->
    <symbol id="icon-web">
        <path fill-rule="evenodd" clip-rule="evenodd" d="M4.03074 19H9.57114C9.70979 14.5599 10.7668 10.519 12.4476 7.49354C12.9253 6.63363 13.4632 5.84095 14.0548 5.14098C8.45593 7.38316 4.41936 12.6981 4.03074 19ZM20 2C10.0589 2 2 10.0589 2 20C2 29.9411 10.0589 38 20 38C29.9411 38 38 29.9411 38 20C38 10.0589 29.9411 2 20 2ZM19 4.11755C17.2604 4.52682 15.5652 6.0002 14.1959 8.46483C12.7028 11.1525 11.7104 14.848 11.5722 19H19V4.11755ZM19 21H11.5722C11.7104 25.152 12.7028 28.8475 14.1959 31.5352C15.5652 33.9998 17.2604 35.4732 19 35.8825V21ZM14.0548 34.859C13.4632 34.159 12.9253 33.3664 12.4476 32.5065C10.7668 29.481 9.70979 25.4401 9.57114 21H4.03074C4.41936 27.3019 8.45593 32.6168 14.0548 34.859ZM25.9452 34.859C31.5441 32.6168 35.5806 27.3019 35.9693 21H30.4289C30.2902 25.4401 29.2332 29.481 27.5524 32.5065C27.0747 33.3664 26.5368 34.159 25.9452 34.859ZM30.4289 19C30.2902 14.5599 29.2332 10.519 27.5524 7.49354C27.0747 6.63364 26.5368 5.84095 25.9452 5.14099C31.5441 7.38317 35.5806 12.6981 35.9693 19H30.4289ZM28.4279 19C28.2896 14.848 27.2972 11.1525 25.8041 8.46483C24.4348 6.0002 22.7396 4.52682 21 4.11755V19H28.4279ZM28.4279 21H21V35.8825C22.7396 35.4732 24.4348 33.9998 25.8041 31.5352C27.2972 28.8475 28.2896 25.152 28.4279 21Z" fill="currentColor"/>
    </symbol>

    <!-- Ícono: LinkedIn -->
    <symbol id="icon-linkedin">
        <path fill-rule="evenodd" clip-rule="evenodd" d="M13.218 14.1434C12.6663 14.512 12.0178 14.7088 11.3544 14.7088C10.4647 14.7088 9.61154 14.3554 8.98248 13.7263C8.35341 13.0972 8 12.244 8 11.3544C8 10.6909 8.19673 10.0424 8.56532 9.49079C8.9339 8.93917 9.45778 8.50923 10.0707 8.25534C10.6836 8.00146 11.3581 7.93502 12.0088 8.06445C12.6595 8.19388 13.2572 8.51335 13.7263 8.98247C14.1954 9.45159 14.5149 10.0493 14.6443 10.7C14.7737 11.3507 14.7073 12.0251 14.4534 12.638C14.1995 13.251 13.7696 13.7749 13.218 14.1434ZM16.9391 32.2192H20.5451C20.7423 32.2148 20.93 32.1334 21.068 31.9923C21.2059 31.8512 21.2831 31.6617 21.2831 31.4644V23.6152C21.3837 22.5586 21.8533 20.2608 24.1343 20.2608C26.8631 20.2608 26.8113 23.1275 26.7879 24.4219C26.786 24.5277 26.7842 24.623 26.7842 24.7054V31.5148C26.7842 31.7149 26.8638 31.9069 27.0053 32.0484C27.1468 32.19 27.3388 32.2695 27.539 32.2695H31.2623C31.4596 32.2651 31.6473 32.1837 31.7852 32.0426C31.9231 31.9015 32.0004 31.7121 32.0003 31.5148V24.4873C32.0003 21.4348 32.0003 15.8833 26.0798 15.8833C25.1487 15.7766 24.2064 15.932 23.3588 16.332C22.5113 16.7321 21.7924 17.3609 21.2831 18.1476V16.8729C21.2831 16.6756 21.2059 16.4861 21.068 16.3451C20.93 16.204 20.7423 16.1225 20.5451 16.1182H16.9391C16.7419 16.1225 16.5542 16.204 16.4163 16.3451C16.2783 16.4861 16.2011 16.6756 16.2012 16.8729V31.5148C16.2137 31.7032 16.2965 31.8801 16.4331 32.0105C16.5697 32.1409 16.7503 32.2154 16.9391 32.2192ZM13.0823 16.0674H9.64409C9.19021 16.0674 8.82227 16.4353 8.82227 16.8892V31.3969C8.82227 31.8508 9.19021 32.2187 9.64409 32.2187H13.0823C13.5362 32.2187 13.9042 31.8508 13.9042 31.3969V16.8892C13.9042 16.4353 13.5362 16.0674 13.0823 16.0674Z" fill="currentColor"/>
    </symbol>

    <!-- Ícono: Hablar con el Robot -->
    <symbol id="icon-robot">
        <path fill-rule="evenodd" clip-rule="evenodd" d="M34.0004 13.67C34.0004 16.18 32.9304 18.66 31.0704 20.56C27.5504 24.16 24.7604 27 20.0604 27H20.0004C15.235 26.98 12.4358 24.1255 8.90056 20.5203L8.89042 20.51C7.00042 18.58 6.00042 16.22 6.00042 13.67C6.00042 6.69 13.2404 2 20.0004 2C23.4404 2 26.9204 3.17 29.5504 5.2C32.4204 7.42 34.0004 10.43 34.0004 13.67ZM20.0504 25C23.9204 25 26.3204 22.55 29.6404 19.16L29.6904 19.11C31.1804 17.58 32.0004 15.65 32.0004 13.67C32.0004 11.06 30.7004 8.61 28.3304 6.78C26.0404 5.01 23.0104 4 20.0004 4C14.2104 4 8.00042 7.89 8.00042 13.67C8.00042 15.68 8.80042 17.56 10.3104 19.11C13.6504 22.52 16.0604 24.98 20.0004 25H20.0504ZM20.0004 6C16.1404 6 13.0004 9.14 13.0004 13C13.0004 16.86 16.1404 20 20.0004 20C23.8604 20 27.0004 16.86 27.0004 13C27.0004 9.14 23.8604 6 20.0004 6ZM20.0004 18C17.2404 18 15.0004 15.76 15.0004 13C15.0004 10.24 17.2404 8 20.0004 8C22.7604 8 25.0004 10.24 25.0004 13C25.0004 15.76 22.7604 18 20.0004 18ZM7.82042 21.75C7.87042 21.82 12.6004 28.14 18.3104 29.48H18.3004C18.6804 29.57 18.9704 29.87 19.0504 30.25C19.1504 30.71 19.9404 34.8 17.7804 36.89C17.0104 37.63 16.0104 38 14.7804 38C14.1904 38 13.5504 37.91 12.8604 37.74C5.51469 35.9135 5.98855 22.9006 6.0103 22.3033L6.01042 22.3C6.03042 21.88 6.31042 21.51 6.72042 21.39C7.13042 21.26 7.57042 21.41 7.82042 21.75ZM13.3504 35.8C14.7604 36.15 15.7804 36.03 16.3904 35.45C17.3604 34.51 17.3404 32.45 17.1904 31.25C13.3104 30.11 10.0104 27.18 8.07042 25.12C8.31042 28.75 9.32042 34.8 13.3504 35.8ZM33.2804 21.39C33.6904 21.51 33.9704 21.88 33.9904 22.3H33.9804C34.0104 22.85 34.5004 35.91 27.1304 37.74C26.4404 37.92 25.8004 38 25.2104 38C23.9804 38 22.9804 37.63 22.2104 36.89C20.0504 34.8 20.8404 30.71 20.9404 30.25C21.0204 29.87 21.3104 29.57 21.6904 29.48C27.2416 28.1676 31.8665 22.1578 32.1655 21.7693L32.1804 21.75C32.4404 21.41 32.8704 21.27 33.2804 21.39ZM23.6104 35.45C24.2204 36.03 25.2404 36.15 26.6504 35.8C30.4504 34.86 31.6704 29.12 31.9404 25.11C30.0004 27.17 26.7004 30.11 22.8104 31.25C22.6604 32.46 22.6404 34.51 23.6104 35.45Z" fill="currentColor"/>
    </symbol>
</svg>
